<svg xmlns="http://www.w3.org/2000/svg" xmlns:xlink="http://www.w3.org/1999/xlink" width="24" height="24" x="0" y="0" enable-background="new 0 0 24 24" version="1.1" viewBox="0 0 24 24" xml:space="preserve"><g id="Header_x2F_BG" display="none"><rect width="520" height="520" x="-402" y="-358" fill="#F1F1F2" display="inline"/></g><g id="Bounding_Boxes"><path fill="none" d="M0,0h24v24H0V0z"/></g><g id="Rounded" display="none"><path d="M20,2H4.01c-1.1,0-2,0.9-2,2v18L6,18h14c1.1,0,2-0.9,2-2V4C22,2.9,21.1,2,20,2z M13,14h-2v-2h2V14z M13,9 c0,0.55-0.45,1-1,1s-1-0.45-1-1V7c0-0.55,0.45-1,1-1s1,0.45,1,1V9z" display="inline"/></g><g id="Sharp" display="none"><path d="M22,2H2.01L2,22l4-4h16V2z M13,14h-2v-2h2V14z M13,10h-2V6h2V10z" display="inline"/></g><g id="Outline"><g><path d="M20,2H4C2.9,2,2.01,2.9,2.01,4L2,22l4-4h14c1.1,0,2-0.9,2-2V4C22,2.9,21.1,2,20,2z M20,16H6H5.17l-0.59,0.59L4,17.17V4h16 V16z"/><rect width="2" height="2" x="11" y="12"/><rect width="2" height="4" x="11" y="6"/></g></g><g id="Duotone" display="none"><g display="inline"><path d="M4,17.17L5.17,16H6h14V4H4V17.17z M11,6h2v4h-2V6z M11,12h2v2h-2V12z" opacity=".3"/><g><path d="M20,2H4C2.9,2,2.01,2.9,2.01,4L2,22l4-4h14c1.1,0,2-0.9,2-2V4C22,2.9,21.1,2,20,2z M20,16H6H5.17L4,17.17V4h16V16z"/><rect width="2" height="2" x="11" y="12"/><rect width="2" height="4" x="11" y="6"/></g></g></g><g id="Fill" display="none"><path d="M20,2H4C2.9,2,2.01,2.9,2.01,4L2,22l4-4h14c1.1,0,2-0.9,2-2V4C22,2.9,21.1,2,20,2z M13,14h-2v-2h2V14z M13,10h-2V6h2V10z" display="inline"/></g></svg>